<svg width="48" height="48" viewBox="0 0 48 48" fill="none" xmlns="http://www.w3.org/2000/svg">
<path fill-rule="evenodd" clip-rule="evenodd" d="M22.7817 0C20.7524 5.23801 19.5289 8.66499 17.2705 13.7476C18.6558 15.2922 20.3556 17.0937 23.1157 19.1267C20.1474 17.8406 18.1241 16.5498 16.61 15.2097C13.7196 21.561 9.19085 30.6098 0 48C7.22449 43.6088 12.8241 40.9018 18.0417 39.8678C17.8171 38.8529 17.6898 37.7555 17.6988 36.6105L17.7078 36.3663C17.8216 31.4931 20.2298 27.7442 23.0812 27.9995C25.9327 28.2532 28.1506 32.4128 28.0353 37.2861C28.0144 38.2043 27.9155 39.086 27.7433 39.9043C32.9056 40.9684 38.4452 43.6691 45.5709 48C44.1661 45.2771 42.9126 42.8207 41.7145 40.4816C39.8275 38.9417 37.8597 36.9388 33.8461 34.7678C36.6047 35.5243 38.58 36.3949 40.1196 37.3686C27.944 13.4923 26.957 10.3206 22.7817 0Z" fill="#1791CF"/>
<path d="M45.7955 43.7166V42.4004H45.3297V42.2244H46.453V42.4004H45.9842V43.7166H45.7955Z" fill="#1791CF"/>
<path d="M46.6476 43.7166V42.2244H46.9292L47.2647 43.2805C47.2961 43.3789 47.3186 43.4534 47.3321 43.501C47.3485 43.447 47.374 43.3677 47.4084 43.2631L47.7469 42.2244H48V43.7166H47.8188V42.467L47.4069 43.7166H47.2377L46.8289 42.4464V43.7166H46.6476Z" fill="#1791CF"/>
</svg>
