<svg width="48" height="48" viewBox="0 0 48 48" fill="none" xmlns="http://www.w3.org/2000/svg">
<path d="M42.654 15.7496C42.5569 15.6501 42.4569 15.5536 42.354 15.4601C42.252 15.3679 42.156 15.2636 42.054 15.171C41.952 15.0784 41.856 14.9741 41.754 14.8819C41.652 14.7892 41.556 14.685 41.454 14.5924C41.352 14.4997 41.256 14.3959 41.154 14.3032C41.052 14.2106 40.956 14.1064 40.854 14.0137C40.752 13.9211 40.656 13.8172 40.554 13.7246C43.53 16.5446 45.2351 20.3816 45.3 24.405C45.3 33.9919 35.208 41.7911 22.8 41.7911C15.852 41.7911 9.636 39.3439 5.502 35.5076L5.802 35.7971L6.102 36.0862L6.402 36.3757L6.702 36.6649L7.002 36.9544L7.302 37.2435L7.602 37.5326C11.73 41.5309 18.084 44.1052 25.2 44.1052C37.608 44.1052 47.7 36.3064 47.7 26.7484C47.7 22.6635 45.876 18.7927 42.654 15.7496Z" fill="black"/>
<path d="M43.8 24.4051C43.8 33.2052 34.398 40.3388 22.8 40.3388C11.202 40.3388 1.8 33.2052 1.8 24.4051C1.8 18.9488 5.4 14.1297 10.932 11.2715C16.464 8.41322 19.908 5.4856 22.8 5.4856C25.692 5.4856 28.164 7.8751 34.668 11.2718C40.2 14.129 43.8 18.9488 43.8 24.4051Z" fill="#FBF0DF"/>
<path d="M43.8 24.405C43.7969 23.2733 43.6354 22.1477 43.32 21.0608C41.682 40.3272 17.31 41.253 7.728 35.4908C12.0353 38.7098 17.3505 40.4198 22.8 40.3388C34.38 40.3388 43.8 33.1935 43.8 24.405Z" fill="#F6DECE"/>
<path d="M14.718 10.2128C17.4 8.66222 20.964 5.75185 24.468 5.74622C23.9278 5.57796 23.3658 5.49014 22.8 5.4856C21.348 5.4856 19.8 6.20935 17.85 7.29685C17.172 7.6786 16.47 8.10085 15.726 8.54072C14.328 9.37397 12.726 10.3167 10.926 11.2598C5.214 14.2396 1.8 19.1517 1.8 24.4051V25.0936C5.436 12.7062 12.042 11.7635 14.718 10.2128Z" fill="#FFFEFC"/>
<path d="M21.072 6.94952C21.0797 8.31892 20.7818 9.6728 20.2001 10.9125C19.611 12.1656 18.7557 13.2753 17.694 14.1641C17.526 14.3089 17.658 14.5868 17.874 14.5054C19.896 13.7479 22.626 11.4799 21.474 6.9034C21.426 6.64277 21.072 6.71215 21.072 6.94952ZM22.434 6.94952C23.1655 8.09748 23.6326 9.39378 23.8013 10.7445C23.9681 12.0896 23.8313 13.4535 23.4 14.7428C23.328 14.9453 23.586 15.1189 23.73 14.9513C25.044 13.3313 26.19 10.1141 22.758 6.64277C22.584 6.49277 22.314 6.72377 22.434 6.92627V6.94952ZM24.09 6.85127C25.2322 7.62832 26.1941 8.64184 26.9104 9.82315C27.6171 10.99 28.0575 12.2985 28.2 13.6553C28.194 13.704 28.2075 13.7528 28.2379 13.7921C28.2694 13.8315 28.3143 13.8577 28.3641 13.8658C28.4138 13.8739 28.4648 13.8633 28.5071 13.836C28.549 13.8092 28.5787 13.7671 28.59 13.7186C29.142 11.6996 28.83 8.25715 24.288 6.46915C24.048 6.3769 23.892 6.68927 24.09 6.82802V6.85127ZM13.014 12.8681C14.3743 12.4781 15.6395 11.8114 16.7302 10.9099C17.806 10.021 18.6806 8.9137 19.296 7.66127C19.404 7.45277 19.746 7.53377 19.692 7.76515C18.654 12.3938 15.18 13.3601 13.02 13.2326C12.792 13.2386 12.798 12.9319 13.014 12.8681Z" fill="#CCBEA7"/>
<path d="M22.8 41.7911C10.392 41.7911 0.299999 33.9918 0.299999 24.4049C0.299999 18.6191 4.008 13.2213 10.218 9.98694C12.018 9.06106 13.56 8.12956 14.934 7.31394C15.69 6.86281 16.404 6.44019 17.094 6.04681C19.2 4.84344 21 4.03906 22.8 4.03906C24.6 4.03906 26.172 4.73356 28.14 5.85594C28.74 6.18594 29.34 6.54444 29.982 6.93781C31.476 7.82881 33.162 8.83531 35.382 9.98694C41.592 13.2213 45.3 18.6134 45.3 24.4049C45.3 33.9918 35.208 41.7911 22.8 41.7911ZM22.8 5.48581C21.348 5.48581 19.8 6.20881 17.85 7.29669C17.172 7.67844 16.47 8.10069 15.726 8.54056C14.328 9.37381 12.726 10.3166 10.926 11.2597C5.214 14.2394 1.8 19.1516 1.8 24.4049C1.8 33.1934 11.22 40.3447 22.8 40.3447C34.38 40.3447 43.8 33.1934 43.8 24.4049C43.8 19.1512 40.386 14.2394 34.668 11.2713C32.4 10.1141 30.63 9.02656 29.196 8.17006C28.542 7.78269 27.942 7.42381 27.396 7.10581C25.578 6.06406 24.252 5.48581 22.8 5.48581Z" fill="black"/>
<path d="M27.03 28.6286C26.7604 29.6933 26.1469 30.6473 25.278 31.3538C24.6173 31.9673 23.7749 32.349 22.878 32.4413C21.9541 32.364 21.0823 31.9814 20.4 31.3538C19.5401 30.6443 18.9352 29.6903 18.672 28.6286C18.6633 28.5655 18.6697 28.5013 18.6907 28.4411C18.7119 28.3805 18.7468 28.3256 18.7927 28.2806C18.8401 28.2354 18.8968 28.2011 18.9589 28.1802C19.021 28.1594 19.0869 28.1524 19.152 28.1599H26.556C26.6206 28.1533 26.6859 28.161 26.7473 28.1824C26.8087 28.2037 26.8646 28.2383 26.9111 28.2836C26.9567 28.3277 26.9913 28.3819 27.0119 28.4419C27.0326 28.5019 27.0388 28.5658 27.03 28.6286Z" fill="#B71422"/>
<path d="M20.4 31.3998C21.0808 32.028 21.9496 32.4144 22.872 32.4993C23.7923 32.4132 24.6588 32.0268 25.338 31.3998C25.552 31.2076 25.7525 31.0009 25.938 30.7811C25.5652 30.3743 25.1138 30.0473 24.6112 29.8196C24.1035 29.5893 23.5552 29.4619 22.998 29.4446C22.4022 29.4576 21.8178 29.6107 21.2921 29.8916C20.7733 30.1685 20.3293 30.567 19.998 31.053C20.136 31.1741 20.256 31.29 20.4 31.3998Z" fill="#FF6164"/>
<path d="M20.496 30.9427C20.7965 30.5695 21.1772 30.2687 21.6098 30.0625C22.0472 29.8536 22.5252 29.7433 23.01 29.7393C23.9024 29.7623 24.7557 30.1101 25.41 30.7173C25.548 30.5725 25.68 30.4222 25.806 30.2718C25.0429 29.5705 24.0338 29.1719 22.98 29.155C22.4182 29.1594 21.8639 29.2841 21.3544 29.5207C20.8504 29.7542 20.4037 30.0955 20.046 30.5204C20.1878 30.6689 20.3381 30.8099 20.496 30.9427Z" fill="black"/>
<path d="M22.854 32.7885C21.8609 32.7069 20.9225 32.3002 20.184 31.6312C19.2551 30.8737 18.6015 29.85 18.318 28.7096C18.2977 28.6084 18.3011 28.5034 18.3281 28.4032C18.3554 28.3026 18.4053 28.2095 18.474 28.131C18.5571 28.0347 18.661 27.9584 18.7777 27.9079C18.8956 27.8565 19.0235 27.8319 19.152 27.8359H26.556C26.6846 27.8332 26.8121 27.8584 26.9295 27.9094C27.0461 27.9599 27.1501 28.0356 27.234 28.131C27.3022 28.2105 27.3514 28.3035 27.3772 28.404C27.4035 28.5041 27.4057 28.6084 27.384 28.7096C27.1005 29.8504 26.4465 30.8737 25.518 31.6312C24.7811 32.299 23.845 32.7056 22.854 32.7885ZM19.152 28.5071C19.056 28.5071 19.032 28.5476 19.026 28.5592C19.2795 29.5485 19.8532 30.4339 20.664 31.0875C21.2645 31.6542 22.0333 32.0097 22.854 32.1C23.6727 32.0105 24.4407 31.6594 25.044 31.0987C25.8521 30.4444 26.4236 29.559 26.676 28.5709C26.6627 28.5522 26.6446 28.5375 26.6235 28.5285C26.6023 28.5193 26.579 28.5159 26.556 28.5187L19.152 28.5071Z" fill="black"/>
<path d="M31.932 28.9875C33.8708 28.9875 35.442 28.0961 35.442 26.997C35.442 25.8978 33.8708 25.0068 31.932 25.0068C29.9933 25.0068 28.422 25.8978 28.422 26.997C28.422 28.0961 29.9933 28.9875 31.932 28.9875ZM13.77 28.9875C15.7088 28.9875 17.28 28.0961 17.28 26.997C17.28 25.8978 15.7088 25.0068 13.77 25.0068C11.8313 25.0068 10.26 25.8978 10.26 26.997C10.26 28.0961 11.8313 28.9875 13.77 28.9875Z" fill="#FEBBD0"/>
<path d="M15.42 26.1986C16.0713 26.2005 16.7095 26.015 17.2582 25.6642C17.7982 25.3198 18.2231 24.8221 18.4785 24.2347C18.7294 23.6546 18.7959 23.0115 18.669 22.3923C18.5398 21.7691 18.225 21.1995 17.766 20.7585C17.2984 20.3093 16.7103 20.0058 16.0732 19.8847C15.4321 19.7611 14.769 19.8235 14.1622 20.0647C13.5627 20.3018 13.0462 20.7102 12.6772 21.2388C12.3152 21.7588 12.1208 22.3771 12.12 23.0107C12.12 23.8552 12.4676 24.6652 13.0864 25.2626C13.7051 25.8603 14.5444 26.1971 15.42 26.1986ZM30.282 26.1986C30.9342 26.2039 31.574 26.0212 32.1251 25.6725C32.6674 25.3302 33.0951 24.8337 33.3532 24.2467C33.607 23.667 33.6761 23.0232 33.5512 22.4028C33.4239 21.7785 33.1104 21.2074 32.652 20.7648C32.1852 20.3139 31.5973 20.0085 30.96 19.8858C30.3183 19.7608 29.6542 19.8224 29.0464 20.0632C28.4459 20.2998 27.9285 20.708 27.5587 21.237C27.1958 21.7573 27.0008 22.3763 27 23.0107C26.9985 23.8526 27.3427 24.6607 27.9581 25.2585C28.5731 25.8558 29.409 26.1941 30.282 26.1986Z" fill="black"/>
<path d="M14.4 23.2132C14.6448 23.2146 14.8849 23.1455 15.0915 23.0141C15.2966 22.8829 15.4567 22.6965 15.5516 22.4779C15.6465 22.26 15.672 22.0181 15.6247 21.7852C15.5766 21.5509 15.4587 21.3367 15.2865 21.1706C15.1109 21.0015 14.8899 20.8871 14.6505 20.8414C14.4095 20.7946 14.1602 20.8179 13.932 20.9085C13.7066 20.9975 13.5124 21.1508 13.3736 21.3495C13.2374 21.5449 13.1643 21.7773 13.164 22.0155C13.164 22.332 13.2941 22.6357 13.5255 22.8604C13.7607 23.0861 14.074 23.2128 14.4 23.2132ZM29.262 23.2132C29.5068 23.2146 29.7469 23.1455 29.9535 23.0141C30.1586 22.8829 30.3187 22.6965 30.4136 22.4779C30.5085 22.26 30.534 22.0181 30.4867 21.7852C30.4386 21.5509 30.3207 21.3367 30.1485 21.1706C29.9729 21.0015 29.7519 20.8871 29.5125 20.8414C29.2715 20.7946 29.0222 20.8179 28.794 20.9085C28.5686 20.9975 28.3744 21.1508 28.2356 21.3495C28.0994 21.5449 28.0263 21.7773 28.026 22.0155C28.026 22.3305 28.1543 22.632 28.3834 22.8562C28.6121 23.0805 28.9234 23.2087 29.25 23.2132H29.262Z" fill="white"/>
</svg>
