<svg width="48" height="48" viewBox="0 0 48 48" fill="none" xmlns="http://www.w3.org/2000/svg">
<path fill-rule="evenodd" clip-rule="evenodd" d="M4.1835 20.5609C4.09237 20.5609 4.06987 20.5152 4.11525 20.4473L4.59262 19.8334C4.63762 19.7652 4.75162 19.7198 4.84237 19.7198H12.9562C13.0474 19.7198 13.0699 19.7881 13.0245 19.8563L12.6382 20.4473C12.5929 20.5152 12.4792 20.5834 12.411 20.5834L4.1835 20.5609ZM0.751499 22.6516C0.660749 22.6516 0.637874 22.6066 0.683249 22.5379L1.16062 21.9244C1.206 21.8562 1.31962 21.8108 1.41075 21.8108H11.7742C11.865 21.8108 11.9107 21.8791 11.8879 21.9473L11.706 22.4926C11.6835 22.5837 11.5924 22.6291 11.5016 22.6291L0.751499 22.6516ZM6.25125 24.7426C6.1605 24.7426 6.138 24.6743 6.18337 24.6061L6.50137 24.0379C6.54712 23.9697 6.63787 23.9018 6.729 23.9018H11.274C11.3651 23.9018 11.4105 23.9697 11.4105 24.0608L11.3655 24.6061C11.3655 24.6972 11.2744 24.7654 11.2061 24.7654L6.25125 24.7426ZM29.8425 20.1518C28.4104 20.5156 27.4331 20.7882 26.0243 21.1516C25.683 21.2427 25.6605 21.2652 25.365 20.9243C25.0241 20.5381 24.774 20.2879 24.297 20.0607C22.8649 19.3564 21.4785 19.5608 20.1832 20.4019C18.6379 21.4017 17.8425 22.8788 17.865 24.7197C17.8875 26.5381 19.1377 28.0381 20.9332 28.2882C22.4786 28.4926 23.7743 27.9469 24.7969 26.7882C25.0013 26.5381 25.1831 26.2654 25.4104 25.9471H21.024C20.547 25.9471 20.4334 25.6516 20.5924 25.2653C20.8879 24.5607 21.4331 23.3791 21.7511 22.7881C21.8197 22.6516 21.9787 22.4243 22.3196 22.4243H30.5921C30.5471 23.0382 30.5471 23.6517 30.456 24.2656C30.2059 25.9017 29.5924 27.4017 28.5923 28.7198C26.9558 30.8791 24.8197 32.2197 22.1149 32.5834C19.8877 32.8789 17.8196 32.4469 16.0016 31.0834C14.3197 29.8107 13.3654 28.1288 13.1152 26.0382C12.8197 23.5609 13.5469 21.3334 15.0469 19.3789C16.6605 17.2654 18.7969 15.9244 21.4106 15.4471C23.547 15.0608 25.5922 15.3109 27.4331 16.5608C28.6376 17.3562 29.5012 18.4471 30.0694 19.7652C30.2059 19.9699 30.1151 20.0836 29.8421 20.1514L29.8425 20.1518Z" fill="#00ACD7"/>
<path d="M37.365 32.7199C35.2969 32.6741 33.4103 32.0835 31.8195 30.7196C30.4785 29.5609 29.6378 28.0834 29.3651 26.3332C28.956 23.7652 29.6603 21.4924 31.206 19.47C32.865 17.2879 34.8649 16.1516 37.5698 15.6742C39.8876 15.2655 42.0698 15.4927 44.0468 16.8334C45.8423 18.0607 46.9556 19.7197 47.2511 21.9015C47.6374 24.9697 46.7513 27.4699 44.6374 29.6062C43.1374 31.1287 41.2965 32.0835 39.183 32.5151C38.5695 32.6287 37.9556 32.6516 37.365 32.7199ZM42.774 23.538C42.7515 23.2425 42.7515 23.0152 42.7058 22.788C42.297 20.538 40.2285 19.2652 38.0696 19.7655C35.9558 20.2425 34.5923 21.5835 34.0924 23.7199C33.6833 25.4925 34.5469 27.288 36.183 28.0151C37.4333 28.5607 38.6831 28.4925 39.8876 27.879C41.6831 26.9471 42.6604 25.4925 42.774 23.538Z" fill="#00ACD7"/>
</svg>
