<svg width="32" height="32" viewBox="0 0 32 32" fill="none" xmlns="http://www.w3.org/2000/svg">
<path d="M28 25.3333V26.6666H4V25.3333L6.66667 22.6666V14.6666C6.66667 10.5333 9.37333 6.89329 13.3333 5.71996C13.3333 5.58663 13.3333 5.46663 13.3333 5.33329C13.3333 4.62605 13.6143 3.94777 14.1144 3.44767C14.6145 2.94758 15.2928 2.66663 16 2.66663C16.7072 2.66663 17.3855 2.94758 17.8856 3.44767C18.3857 3.94777 18.6667 4.62605 18.6667 5.33329C18.6667 5.46663 18.6667 5.58663 18.6667 5.71996C22.6267 6.89329 25.3333 10.5333 25.3333 14.6666V22.6666L28 25.3333ZM18.6667 28C18.6667 28.7072 18.3857 29.3855 17.8856 29.8856C17.3855 30.3857 16.7072 30.6666 16 30.6666C15.2928 30.6666 14.6145 30.3857 14.1144 29.8856C13.6143 29.3855 13.3333 28.7072 13.3333 28" fill="#5691EA"/>
</svg>
